<?xml version="1.0" encoding="UTF-8"?>
<!DOCTYPE svg PUBLIC "-//W3C//DTD SVG 1.1//EN" "http://www.w3.org/Graphics/SVG/1.1/DTD/svg11.dtd">
<svg width="160mm" height="90mm" viewBox="0 0 16000 9000" version="1.1" xmlns="http://www.w3.org/2000/svg" stroke-width="28.222" stroke-linejoin="round" xml:space="preserve">
 <path fill="none" stroke="rgb(179,179,179)" stroke-linejoin="round" d="M 2338,6603 L 15678,6603"/>
 <path fill="none" stroke="rgb(179,179,179)" stroke-linejoin="round" d="M 2188,6603 L 2338,6603"/>
 <path fill="none" stroke="rgb(179,179,179)" stroke-linejoin="round" d="M 2188,6603 L 2338,6603"/>
 <path fill="none" stroke="rgb(179,179,179)" stroke-linejoin="round" d="M 2188,5702 L 2338,5702"/>
 <path fill="none" stroke="rgb(179,179,179)" stroke-linejoin="round" d="M 2188,5702 L 2338,5702"/>
 <path fill="none" stroke="rgb(179,179,179)" stroke-linejoin="round" d="M 2188,4801 L 2338,4801"/>
 <path fill="none" stroke="rgb(179,179,179)" stroke-linejoin="round" d="M 2188,4801 L 2338,4801"/>
 <path fill="none" stroke="rgb(179,179,179)" stroke-linejoin="round" d="M 2188,3902 L 2338,3902"/>
 <path fill="none" stroke="rgb(179,179,179)" stroke-linejoin="round" d="M 2188,3902 L 2338,3902"/>
 <path fill="none" stroke="rgb(179,179,179)" stroke-linejoin="round" d="M 2188,3001 L 2338,3001"/>
 <path fill="none" stroke="rgb(179,179,179)" stroke-linejoin="round" d="M 2188,3001 L 2338,3001"/>
 <path fill="none" stroke="rgb(179,179,179)" stroke-linejoin="round" d="M 2188,2101 L 2338,2101"/>
 <path fill="none" stroke="rgb(179,179,179)" stroke-linejoin="round" d="M 2188,2101 L 2338,2101"/>
 <path fill="none" stroke="rgb(179,179,179)" stroke-linejoin="round" d="M 2188,1200 L 2338,1200"/>
 <path fill="none" stroke="rgb(179,179,179)" stroke-linejoin="round" d="M 2188,1200 L 2338,1200"/>
 <path fill="none" stroke="rgb(179,179,179)" stroke-linejoin="round" d="M 2188,300 L 2338,300"/>
 <path fill="none" stroke="rgb(179,179,179)" stroke-linejoin="round" d="M 2188,300 L 2338,300"/>
 <path fill="none" stroke="rgb(179,179,179)" stroke-linejoin="round" d="M 2338,6603 L 2338,300"/>
 <path fill="none" stroke="rgb(255,66,14)" stroke-width="80" stroke-linejoin="round" d="M 2338,6598 L 2437,6602 2537,6602 2636,6602 2736,6602 2835,6602 2935,6565 3034,6526 3134,6136 3234,6117 3333,6128 3433,6135 3532,6139 3632,6138 3731,6133 3831,6125 3930,6112 4030,6100 4130,6087 4229,6064 4329,6054 4428,6042 4528,6032 4627,6022 4727,6014 4826,6006 4926,6028 5026,5993 5125,5989 5225,5981 5324,5978 5424,5971 5523,6006 5623,5969 5723,5966 5822,5998 5922,5913 6021,5898 6121,5885 6220,5870 6320,5848 6419,5829 6519,5812 6619,5757 6718,5730 6818,5713 6917,5759 7017,5623 7116,5609 7216,5599 7315,5617 7415,5551 7515,5540 7614,5577 7714,5456 7813,5457 7913,5463 8011,5458 8111,5454 8211,5467 8310,5477 8410,5465 8509,5365 8609,5496 8708,5546 8808,5412 8907,5420 9007,5405 9107,5289 9206,5394 9306,5379 9405,5258 9505,5515 9604,5451 9704,5453 9803,5401 9903,5349 10003,5305 10102,5234 10202,5172 10301,5130 10401,5081 10500,5243 10600,4280 10700,4440 10799,4437 10899,4268 10998,4604 11098,4496 11197,4422 11297,4345 11396,4430 11496,4101 11596,4054 11695,4004 11795,3974 11894,3956 11994,3911 12093,3799 12193,3755 12292,3767 12392,3452 12492,3311 12591,3257 12691,3193 12790,3060 12890,2993 12989,3014 13089,2929 13189,2940 13288,2914 13388,2852 13487,2880 13587,2676 13686,2575 13786,2658 13885,2353 13985,2030 14085,2051 14184,1853 14284,1833 14383,1844 14483,1820 14582,1824 14682,1644 14781,1661 14881,1706 14981,1572 15080,1640 15180,1445 15279,1540 15379,1065 15478,1065 15578,1065 15678,1065"/>
 <path fill="none" stroke="rgb(78,154,6)" stroke-width="80" stroke-linejoin="round" d="M 2338,6602 L 2437,6602 2537,6602 2636,6602 2736,6602 2835,6602 2935,6602 3034,6602 3134,6602 3234,6602 3333,6602 3433,6602 3532,6602 3632,6602 3731,6602 3831,6602 3930,6602"/>
 <text class="TextShape" transform="translate(2290,7060) rotate(-44.9) translate(-2290,-7060)"><tspan class="TextParagraph" font-family="Liberation Sans, sans-serif" font-size="353px" font-weight="400"><tspan class="TextPosition" x="2290" y="7060"><tspan fill="rgb(0,0,0)" stroke="none">1</tspan></tspan></tspan></text>
 <text class="TextShape" transform="translate(2887,7060) rotate(-44.9) translate(-2887,-7060)"><tspan class="TextParagraph" font-family="Liberation Sans, sans-serif" font-size="353px" font-weight="400"><tspan class="TextPosition" x="2887" y="7060"><tspan fill="rgb(0,0,0)" stroke="none">7</tspan></tspan></tspan></text>
 <text class="TextShape" transform="translate(3353,7190) rotate(-44.9) translate(-3353,-7190)"><tspan class="TextParagraph" font-family="Liberation Sans, sans-serif" font-size="353px" font-weight="400"><tspan class="TextPosition" x="3353" y="7190"><tspan fill="rgb(0,0,0)" stroke="none">13</tspan></tspan></tspan></text>
 <text class="TextShape" transform="translate(3951,7190) rotate(-44.9) translate(-3951,-7190)"><tspan class="TextParagraph" font-family="Liberation Sans, sans-serif" font-size="353px" font-weight="400"><tspan class="TextPosition" x="3951" y="7190"><tspan fill="rgb(0,0,0)" stroke="none">19</tspan></tspan></tspan></text>
 <text class="TextShape" transform="translate(4548,7190) rotate(-44.9) translate(-4548,-7190)"><tspan class="TextParagraph" font-family="Liberation Sans, sans-serif" font-size="353px" font-weight="400"><tspan class="TextPosition" x="4548" y="7190"><tspan fill="rgb(0,0,0)" stroke="none">25</tspan></tspan></tspan></text>
 <text class="TextShape" transform="translate(5145,7190) rotate(-44.9) translate(-5145,-7190)"><tspan class="TextParagraph" font-family="Liberation Sans, sans-serif" font-size="353px" font-weight="400"><tspan class="TextPosition" x="5145" y="7190"><tspan fill="rgb(0,0,0)" stroke="none">31</tspan></tspan></tspan></text>
 <text class="TextShape" transform="translate(5743,7190) rotate(-44.9) translate(-5743,-7190)"><tspan class="TextParagraph" font-family="Liberation Sans, sans-serif" font-size="353px" font-weight="400"><tspan class="TextPosition" x="5743" y="7190"><tspan fill="rgb(0,0,0)" stroke="none">37</tspan></tspan></tspan></text>
 <text class="TextShape" transform="translate(6340,7190) rotate(-44.9) translate(-6340,-7190)"><tspan class="TextParagraph" font-family="Liberation Sans, sans-serif" font-size="353px" font-weight="400"><tspan class="TextPosition" x="6340" y="7190"><tspan fill="rgb(0,0,0)" stroke="none">43</tspan></tspan></tspan></text>
 <text class="TextShape" transform="translate(6937,7190) rotate(-44.9) translate(-6937,-7190)"><tspan class="TextParagraph" font-family="Liberation Sans, sans-serif" font-size="353px" font-weight="400"><tspan class="TextPosition" x="6937" y="7190"><tspan fill="rgb(0,0,0)" stroke="none">49</tspan></tspan></tspan></text>
 <text class="TextShape" transform="translate(7535,7190) rotate(-44.9) translate(-7535,-7190)"><tspan class="TextParagraph" font-family="Liberation Sans, sans-serif" font-size="353px" font-weight="400"><tspan class="TextPosition" x="7535" y="7190"><tspan fill="rgb(0,0,0)" stroke="none">55</tspan></tspan></tspan></text>
 <text class="TextShape" transform="translate(8132,7190) rotate(-44.9) translate(-8132,-7190)"><tspan class="TextParagraph" font-family="Liberation Sans, sans-serif" font-size="353px" font-weight="400"><tspan class="TextPosition" x="8132" y="7190"><tspan fill="rgb(0,0,0)" stroke="none">61</tspan></tspan></tspan></text>
 <text class="TextShape" transform="translate(8729,7190) rotate(-44.9) translate(-8729,-7190)"><tspan class="TextParagraph" font-family="Liberation Sans, sans-serif" font-size="353px" font-weight="400"><tspan class="TextPosition" x="8729" y="7190"><tspan fill="rgb(0,0,0)" stroke="none">67</tspan></tspan></tspan></text>
 <text class="TextShape" transform="translate(9327,7190) rotate(-44.9) translate(-9327,-7190)"><tspan class="TextParagraph" font-family="Liberation Sans, sans-serif" font-size="353px" font-weight="400"><tspan class="TextPosition" x="9327" y="7190"><tspan fill="rgb(0,0,0)" stroke="none">73</tspan></tspan></tspan></text>
 <text class="TextShape" transform="translate(9924,7190) rotate(-44.9) translate(-9924,-7190)"><tspan class="TextParagraph" font-family="Liberation Sans, sans-serif" font-size="353px" font-weight="400"><tspan class="TextPosition" x="9924" y="7190"><tspan fill="rgb(0,0,0)" stroke="none">79</tspan></tspan></tspan></text>
 <text class="TextShape" transform="translate(10522,7190) rotate(-44.9) translate(-10522,-7190)"><tspan class="TextParagraph" font-family="Liberation Sans, sans-serif" font-size="353px" font-weight="400"><tspan class="TextPosition" x="10522" y="7190"><tspan fill="rgb(0,0,0)" stroke="none">85</tspan></tspan></tspan></text>
 <text class="TextShape" transform="translate(11119,7190) rotate(-44.9) translate(-11119,-7190)"><tspan class="TextParagraph" font-family="Liberation Sans, sans-serif" font-size="353px" font-weight="400"><tspan class="TextPosition" x="11119" y="7190"><tspan fill="rgb(0,0,0)" stroke="none">91</tspan></tspan></tspan></text>
 <text class="TextShape" transform="translate(11715,7190) rotate(-44.9) translate(-11715,-7190)"><tspan class="TextParagraph" font-family="Liberation Sans, sans-serif" font-size="353px" font-weight="400"><tspan class="TextPosition" x="11715" y="7190"><tspan fill="rgb(0,0,0)" stroke="none">97</tspan></tspan></tspan></text>
 <text class="TextShape" transform="translate(12182,7322) rotate(-44.9) translate(-12182,-7322)"><tspan class="TextParagraph" font-family="Liberation Sans, sans-serif" font-size="353px" font-weight="400"><tspan class="TextPosition" x="12182" y="7322"><tspan fill="rgb(0,0,0)" stroke="none">103</tspan></tspan></tspan></text>
 <text class="TextShape" transform="translate(12779,7322) rotate(-44.9) translate(-12779,-7322)"><tspan class="TextParagraph" font-family="Liberation Sans, sans-serif" font-size="353px" font-weight="400"><tspan class="TextPosition" x="12779" y="7322"><tspan fill="rgb(0,0,0)" stroke="none">109</tspan></tspan></tspan></text>
 <text class="TextShape" transform="translate(13376,7322) rotate(-44.9) translate(-13376,-7322)"><tspan class="TextParagraph" font-family="Liberation Sans, sans-serif" font-size="353px" font-weight="400"><tspan class="TextPosition" x="13376" y="7322"><tspan fill="rgb(0,0,0)" stroke="none">115</tspan></tspan></tspan></text>
 <text class="TextShape" transform="translate(13974,7322) rotate(-44.9) translate(-13974,-7322)"><tspan class="TextParagraph" font-family="Liberation Sans, sans-serif" font-size="353px" font-weight="400"><tspan class="TextPosition" x="13974" y="7322"><tspan fill="rgb(0,0,0)" stroke="none">121</tspan></tspan></tspan></text>
 <text class="TextShape" transform="translate(14571,7322) rotate(-44.9) translate(-14571,-7322)"><tspan class="TextParagraph" font-family="Liberation Sans, sans-serif" font-size="353px" font-weight="400"><tspan class="TextPosition" x="14571" y="7322"><tspan fill="rgb(0,0,0)" stroke="none">127</tspan></tspan></tspan></text>
 <text class="TextShape" transform="translate(15168,7322) rotate(-44.9) translate(-15168,-7322)"><tspan class="TextParagraph" font-family="Liberation Sans, sans-serif" font-size="353px" font-weight="400"><tspan class="TextPosition" x="15168" y="7322"><tspan fill="rgb(0,0,0)" stroke="none">133</tspan></tspan></tspan></text>
 <text class="TextShape"><tspan class="TextParagraph" font-family="Liberation Sans, sans-serif" font-size="353px" font-weight="400"><tspan class="TextPosition" x="1903" y="6724"><tspan fill="rgb(0,0,0)" stroke="none">0</tspan></tspan></tspan></text>
 <text class="TextShape"><tspan class="TextParagraph" font-family="Liberation Sans, sans-serif" font-size="353px" font-weight="400"><tspan class="TextPosition" x="1718" y="5823"><tspan fill="rgb(0,0,0)" stroke="none">10</tspan></tspan></tspan></text>
 <text class="TextShape"><tspan class="TextParagraph" font-family="Liberation Sans, sans-serif" font-size="353px" font-weight="400"><tspan class="TextPosition" x="1718" y="4922"><tspan fill="rgb(0,0,0)" stroke="none">20</tspan></tspan></tspan></text>
 <text class="TextShape"><tspan class="TextParagraph" font-family="Liberation Sans, sans-serif" font-size="353px" font-weight="400"><tspan class="TextPosition" x="1718" y="4022"><tspan fill="rgb(0,0,0)" stroke="none">30</tspan></tspan></tspan></text>
 <text class="TextShape"><tspan class="TextParagraph" font-family="Liberation Sans, sans-serif" font-size="353px" font-weight="400"><tspan class="TextPosition" x="1718" y="3121"><tspan fill="rgb(0,0,0)" stroke="none">40</tspan></tspan></tspan></text>
 <text class="TextShape"><tspan class="TextParagraph" font-family="Liberation Sans, sans-serif" font-size="353px" font-weight="400"><tspan class="TextPosition" x="1718" y="2221"><tspan fill="rgb(0,0,0)" stroke="none">50</tspan></tspan></tspan></text>
 <text class="TextShape"><tspan class="TextParagraph" font-family="Liberation Sans, sans-serif" font-size="353px" font-weight="400"><tspan class="TextPosition" x="1718" y="1320"><tspan fill="rgb(0,0,0)" stroke="none">60</tspan></tspan></tspan></text>
 <text class="TextShape"><tspan class="TextParagraph" font-family="Liberation Sans, sans-serif" font-size="353px" font-weight="400"><tspan class="TextPosition" x="1718" y="420"><tspan fill="rgb(0,0,0)" stroke="none">70</tspan></tspan></tspan></text>
 <text class="TextShape"><tspan class="TextParagraph" font-family="Liberation Sans, sans-serif" font-size="564px" font-weight="400"><tspan class="TextPosition" x="4901" y="8310"><tspan fill="rgb(0,0,0)" stroke="none">Time before phase change (s)</tspan></tspan></tspan></text>
 <text class="TextShape" transform="translate(1123,6767) rotate(-90) translate(-1123,-6767)"><tspan class="TextParagraph" font-family="Liberation Sans, sans-serif" font-size="564px" font-weight="400"><tspan class="TextPosition" x="1123" y="6767"><tspan fill="rgb(0,0,0)" stroke="none">Mean Average Error (s)</tspan></tspan></tspan></text>
</svg>