<?xml version="1.0" encoding="UTF-8"?>
<!DOCTYPE svg PUBLIC "-//W3C//DTD SVG 1.1//EN" "http://www.w3.org/Graphics/SVG/1.1/DTD/svg11.dtd">
<svg width="160mm" height="90mm" viewBox="0 0 16000 9000" version="1.1" xmlns="http://www.w3.org/2000/svg" stroke-width="28.222" stroke-linejoin="round" xml:space="preserve">
 <path fill="none" stroke="rgb(179,179,179)" stroke-linejoin="round" d="M 2095,6846 L 15678,6846"/>
 <path fill="none" stroke="rgb(179,179,179)" stroke-linejoin="round" d="M 1945,6846 L 2095,6846"/>
 <path fill="none" stroke="rgb(179,179,179)" stroke-linejoin="round" d="M 1945,6846 L 2095,6846"/>
 <path fill="none" stroke="rgb(179,179,179)" stroke-linejoin="round" d="M 1945,5910 L 2095,5910"/>
 <path fill="none" stroke="rgb(179,179,179)" stroke-linejoin="round" d="M 1945,5910 L 2095,5910"/>
 <path fill="none" stroke="rgb(179,179,179)" stroke-linejoin="round" d="M 1945,4975 L 2095,4975"/>
 <path fill="none" stroke="rgb(179,179,179)" stroke-linejoin="round" d="M 1945,4975 L 2095,4975"/>
 <path fill="none" stroke="rgb(179,179,179)" stroke-linejoin="round" d="M 1945,4041 L 2095,4041"/>
 <path fill="none" stroke="rgb(179,179,179)" stroke-linejoin="round" d="M 1945,4041 L 2095,4041"/>
 <path fill="none" stroke="rgb(179,179,179)" stroke-linejoin="round" d="M 1945,3105 L 2095,3105"/>
 <path fill="none" stroke="rgb(179,179,179)" stroke-linejoin="round" d="M 1945,3105 L 2095,3105"/>
 <path fill="none" stroke="rgb(179,179,179)" stroke-linejoin="round" d="M 1945,2170 L 2095,2170"/>
 <path fill="none" stroke="rgb(179,179,179)" stroke-linejoin="round" d="M 1945,2170 L 2095,2170"/>
 <path fill="none" stroke="rgb(179,179,179)" stroke-linejoin="round" d="M 1945,1235 L 2095,1235"/>
 <path fill="none" stroke="rgb(179,179,179)" stroke-linejoin="round" d="M 1945,1235 L 2095,1235"/>
 <path fill="none" stroke="rgb(179,179,179)" stroke-linejoin="round" d="M 1945,300 L 2095,300"/>
 <path fill="none" stroke="rgb(179,179,179)" stroke-linejoin="round" d="M 1945,300 L 2095,300"/>
 <path fill="none" stroke="rgb(179,179,179)" stroke-linejoin="round" d="M 2095,6846 L 2095,300"/>
 <path fill="none" stroke="rgb(255,66,14)" stroke-width="80" stroke-linejoin="round" d="M 2095,6841 L 2196,6845 2297,6845 2399,6845 2500,6845 2601,6845 2703,6807 2804,6766 2905,6361 3007,6341 3108,6352 3210,6360 3311,6364 3412,6363 3514,6357 3615,6350 3716,6336 3818,6324 3919,6310 4021,6287 4122,6275 4223,6263 4325,6253 4426,6242 4527,6234 4629,6226 4730,6249 4832,6212 4933,6208 5034,6200 5136,6197 5237,6189 5338,6226 5440,6187 5541,6185 5643,6218 5744,6130 5845,6114 5947,6100 6048,6084 6149,6062 6251,6042 6352,6024 6454,5968 6555,5940 6656,5921 6758,5969 6859,5829 6960,5814 7062,5803 7163,5822 7265,5754 7366,5742 7467,5780 7569,5655 7670,5656 7771,5662 7873,5656 7974,5653 8075,5666 8176,5677 8277,5664 8379,5561 8480,5697 8581,5748 8683,5609 8784,5617 8886,5601 8987,5481 9088,5590 9190,5575 9291,5449 9392,5716 9494,5649 9595,5651 9696,5598 9798,5543 9899,5498 10001,5425 10102,5359 10203,5316 10305,5265 10406,5434 10507,4434 10609,4599 10710,4595 10812,4421 10913,4770 11014,4657 11116,4580 11217,4501 11318,4588 11420,4247 11521,4199 11623,4146 11724,4115 11825,4097 11927,4050 12028,3934 12129,3888 12231,3900 12332,3574 12434,3427 12535,3371 12636,3305 12738,3166 12839,3097 12940,3119 13042,3030 13143,3042 13245,3015 13346,2951 13447,2979 13549,2768 13650,2662 13751,2749 13853,2432 13954,2097 14056,2118 14157,1913 14258,1892 14360,1904 14461,1879 14562,1883 14664,1696 14765,1714 14867,1760 14968,1621 15069,1691 15171,1490 15272,1588 15373,1095 15475,1095 15576,1095 15678,1095"/>
 <text class="TextShape" transform="translate(2047,7303) rotate(-44.9) translate(-2047,-7303)"><tspan class="TextParagraph" font-family="Liberation Sans, sans-serif" font-size="353px" font-weight="400"><tspan class="TextPosition" x="2047" y="7303"><tspan fill="rgb(0,0,0)" stroke="none">1</tspan></tspan></tspan></text>
 <text class="TextShape" transform="translate(2655,7303) rotate(-44.9) translate(-2655,-7303)"><tspan class="TextParagraph" font-family="Liberation Sans, sans-serif" font-size="353px" font-weight="400"><tspan class="TextPosition" x="2655" y="7303"><tspan fill="rgb(0,0,0)" stroke="none">7</tspan></tspan></tspan></text>
 <text class="TextShape" transform="translate(3132,7433) rotate(-44.9) translate(-3132,-7433)"><tspan class="TextParagraph" font-family="Liberation Sans, sans-serif" font-size="353px" font-weight="400"><tspan class="TextPosition" x="3132" y="7433"><tspan fill="rgb(0,0,0)" stroke="none">13</tspan></tspan></tspan></text>
 <text class="TextShape" transform="translate(3740,7433) rotate(-44.9) translate(-3740,-7433)"><tspan class="TextParagraph" font-family="Liberation Sans, sans-serif" font-size="353px" font-weight="400"><tspan class="TextPosition" x="3740" y="7433"><tspan fill="rgb(0,0,0)" stroke="none">19</tspan></tspan></tspan></text>
 <text class="TextShape" transform="translate(4348,7433) rotate(-44.9) translate(-4348,-7433)"><tspan class="TextParagraph" font-family="Liberation Sans, sans-serif" font-size="353px" font-weight="400"><tspan class="TextPosition" x="4348" y="7433"><tspan fill="rgb(0,0,0)" stroke="none">25</tspan></tspan></tspan></text>
 <text class="TextShape" transform="translate(4957,7433) rotate(-44.9) translate(-4957,-7433)"><tspan class="TextParagraph" font-family="Liberation Sans, sans-serif" font-size="353px" font-weight="400"><tspan class="TextPosition" x="4957" y="7433"><tspan fill="rgb(0,0,0)" stroke="none">31</tspan></tspan></tspan></text>
 <text class="TextShape" transform="translate(5565,7433) rotate(-44.9) translate(-5565,-7433)"><tspan class="TextParagraph" font-family="Liberation Sans, sans-serif" font-size="353px" font-weight="400"><tspan class="TextPosition" x="5565" y="7433"><tspan fill="rgb(0,0,0)" stroke="none">37</tspan></tspan></tspan></text>
 <text class="TextShape" transform="translate(6173,7433) rotate(-44.9) translate(-6173,-7433)"><tspan class="TextParagraph" font-family="Liberation Sans, sans-serif" font-size="353px" font-weight="400"><tspan class="TextPosition" x="6173" y="7433"><tspan fill="rgb(0,0,0)" stroke="none">43</tspan></tspan></tspan></text>
 <text class="TextShape" transform="translate(6781,7433) rotate(-44.9) translate(-6781,-7433)"><tspan class="TextParagraph" font-family="Liberation Sans, sans-serif" font-size="353px" font-weight="400"><tspan class="TextPosition" x="6781" y="7433"><tspan fill="rgb(0,0,0)" stroke="none">49</tspan></tspan></tspan></text>
 <text class="TextShape" transform="translate(7390,7433) rotate(-44.9) translate(-7390,-7433)"><tspan class="TextParagraph" font-family="Liberation Sans, sans-serif" font-size="353px" font-weight="400"><tspan class="TextPosition" x="7390" y="7433"><tspan fill="rgb(0,0,0)" stroke="none">55</tspan></tspan></tspan></text>
 <text class="TextShape" transform="translate(7998,7433) rotate(-44.9) translate(-7998,-7433)"><tspan class="TextParagraph" font-family="Liberation Sans, sans-serif" font-size="353px" font-weight="400"><tspan class="TextPosition" x="7998" y="7433"><tspan fill="rgb(0,0,0)" stroke="none">61</tspan></tspan></tspan></text>
 <text class="TextShape" transform="translate(8606,7433) rotate(-44.9) translate(-8606,-7433)"><tspan class="TextParagraph" font-family="Liberation Sans, sans-serif" font-size="353px" font-weight="400"><tspan class="TextPosition" x="8606" y="7433"><tspan fill="rgb(0,0,0)" stroke="none">67</tspan></tspan></tspan></text>
 <text class="TextShape" transform="translate(9214,7433) rotate(-44.9) translate(-9214,-7433)"><tspan class="TextParagraph" font-family="Liberation Sans, sans-serif" font-size="353px" font-weight="400"><tspan class="TextPosition" x="9214" y="7433"><tspan fill="rgb(0,0,0)" stroke="none">73</tspan></tspan></tspan></text>
 <text class="TextShape" transform="translate(9823,7433) rotate(-44.9) translate(-9823,-7433)"><tspan class="TextParagraph" font-family="Liberation Sans, sans-serif" font-size="353px" font-weight="400"><tspan class="TextPosition" x="9823" y="7433"><tspan fill="rgb(0,0,0)" stroke="none">79</tspan></tspan></tspan></text>
 <text class="TextShape" transform="translate(10431,7433) rotate(-44.9) translate(-10431,-7433)"><tspan class="TextParagraph" font-family="Liberation Sans, sans-serif" font-size="353px" font-weight="400"><tspan class="TextPosition" x="10431" y="7433"><tspan fill="rgb(0,0,0)" stroke="none">85</tspan></tspan></tspan></text>
 <text class="TextShape" transform="translate(11039,7433) rotate(-44.9) translate(-11039,-7433)"><tspan class="TextParagraph" font-family="Liberation Sans, sans-serif" font-size="353px" font-weight="400"><tspan class="TextPosition" x="11039" y="7433"><tspan fill="rgb(0,0,0)" stroke="none">91</tspan></tspan></tspan></text>
 <text class="TextShape" transform="translate(11646,7433) rotate(-44.9) translate(-11646,-7433)"><tspan class="TextParagraph" font-family="Liberation Sans, sans-serif" font-size="353px" font-weight="400"><tspan class="TextPosition" x="11646" y="7433"><tspan fill="rgb(0,0,0)" stroke="none">97</tspan></tspan></tspan></text>
 <text class="TextShape" transform="translate(12124,7565) rotate(-44.9) translate(-12124,-7565)"><tspan class="TextParagraph" font-family="Liberation Sans, sans-serif" font-size="353px" font-weight="400"><tspan class="TextPosition" x="12124" y="7565"><tspan fill="rgb(0,0,0)" stroke="none">103</tspan></tspan></tspan></text>
 <text class="TextShape" transform="translate(12732,7565) rotate(-44.9) translate(-12732,-7565)"><tspan class="TextParagraph" font-family="Liberation Sans, sans-serif" font-size="353px" font-weight="400"><tspan class="TextPosition" x="12732" y="7565"><tspan fill="rgb(0,0,0)" stroke="none">109</tspan></tspan></tspan></text>
 <text class="TextShape" transform="translate(13340,7565) rotate(-44.9) translate(-13340,-7565)"><tspan class="TextParagraph" font-family="Liberation Sans, sans-serif" font-size="353px" font-weight="400"><tspan class="TextPosition" x="13340" y="7565"><tspan fill="rgb(0,0,0)" stroke="none">115</tspan></tspan></tspan></text>
 <text class="TextShape" transform="translate(13948,7565) rotate(-44.9) translate(-13948,-7565)"><tspan class="TextParagraph" font-family="Liberation Sans, sans-serif" font-size="353px" font-weight="400"><tspan class="TextPosition" x="13948" y="7565"><tspan fill="rgb(0,0,0)" stroke="none">121</tspan></tspan></tspan></text>
 <text class="TextShape" transform="translate(14557,7565) rotate(-44.9) translate(-14557,-7565)"><tspan class="TextParagraph" font-family="Liberation Sans, sans-serif" font-size="353px" font-weight="400"><tspan class="TextPosition" x="14557" y="7565"><tspan fill="rgb(0,0,0)" stroke="none">127</tspan></tspan></tspan></text>
 <text class="TextShape" transform="translate(15165,7565) rotate(-44.9) translate(-15165,-7565)"><tspan class="TextParagraph" font-family="Liberation Sans, sans-serif" font-size="353px" font-weight="400"><tspan class="TextPosition" x="15165" y="7565"><tspan fill="rgb(0,0,0)" stroke="none">133</tspan></tspan></tspan></text>
 <text class="TextShape"><tspan class="TextParagraph" font-family="Liberation Sans, sans-serif" font-size="353px" font-weight="400"><tspan class="TextPosition" x="1660" y="6967"><tspan fill="rgb(0,0,0)" stroke="none">0</tspan></tspan></tspan></text>
 <text class="TextShape"><tspan class="TextParagraph" font-family="Liberation Sans, sans-serif" font-size="353px" font-weight="400"><tspan class="TextPosition" x="1475" y="6031"><tspan fill="rgb(0,0,0)" stroke="none">10</tspan></tspan></tspan></text>
 <text class="TextShape"><tspan class="TextParagraph" font-family="Liberation Sans, sans-serif" font-size="353px" font-weight="400"><tspan class="TextPosition" x="1475" y="5096"><tspan fill="rgb(0,0,0)" stroke="none">20</tspan></tspan></tspan></text>
 <text class="TextShape"><tspan class="TextParagraph" font-family="Liberation Sans, sans-serif" font-size="353px" font-weight="400"><tspan class="TextPosition" x="1475" y="4161"><tspan fill="rgb(0,0,0)" stroke="none">30</tspan></tspan></tspan></text>
 <text class="TextShape"><tspan class="TextParagraph" font-family="Liberation Sans, sans-serif" font-size="353px" font-weight="400"><tspan class="TextPosition" x="1475" y="3225"><tspan fill="rgb(0,0,0)" stroke="none">40</tspan></tspan></tspan></text>
 <text class="TextShape"><tspan class="TextParagraph" font-family="Liberation Sans, sans-serif" font-size="353px" font-weight="400"><tspan class="TextPosition" x="1475" y="2290"><tspan fill="rgb(0,0,0)" stroke="none">50</tspan></tspan></tspan></text>
 <text class="TextShape"><tspan class="TextParagraph" font-family="Liberation Sans, sans-serif" font-size="353px" font-weight="400"><tspan class="TextPosition" x="1475" y="1355"><tspan fill="rgb(0,0,0)" stroke="none">60</tspan></tspan></tspan></text>
 <text class="TextShape"><tspan class="TextParagraph" font-family="Liberation Sans, sans-serif" font-size="353px" font-weight="400"><tspan class="TextPosition" x="1475" y="420"><tspan fill="rgb(0,0,0)" stroke="none">70</tspan></tspan></tspan></text>
 <text class="TextShape"><tspan class="TextParagraph" font-family="Liberation Sans, sans-serif" font-size="423px" font-weight="400"><tspan class="TextPosition" x="5771" y="8377"><tspan fill="rgb(0,0,0)" stroke="none">Time before phase change (s)</tspan></tspan></tspan></text>
 <text class="TextShape" transform="translate(948,6122) rotate(-90) translate(-948,-6122)"><tspan class="TextParagraph" font-family="Liberation Sans, sans-serif" font-size="423px" font-weight="400"><tspan class="TextPosition" x="948" y="6122"><tspan fill="rgb(0,0,0)" stroke="none">Mean Average Error (s)</tspan></tspan></tspan></text>
</svg>